# xmcd
#
# Track frame offsets: 
#        182
#        15137
#        35167
#        51235
#        65450
#        76835
#        90222
#        106405
#        119085
#        131592
#        148012
#        164300
#
# Disc length: 2439 seconds
#
# Revision: 2
# Processed by: cddbd v1.5.2PL0 Copyright (c) Steve Scherf et al.
# Submitted via: ExactAudioCopyFreeDBPlugin 1.0
#
DISCID=9909850c
DTITLE=Barrence Whitfield - Cowboy Mambo
DYEAR=1993
DGENRE=Blues
TTITLE0=The Cowboy Mambo (with Tom Russell)
TTITLE1=A Little Wind (with Tom Russell)
TTITLE2=Daniel and the Sacred Harp (with Tom Russell)
TTITLE3=Black Rose (with Tom Russell)
TTITLE4=Desert Blues (with Tom Russell)
TTITLE5=The Devil's Right Hand (with Tom Russell)
TTITLE6=Home Before Dark (with Tom Russell)
TTITLE7=I Want to See the Bright Lights Tonight (with Tom Russell)
TTITLE8=Insufficient Sweetie (with Tom Russell)
TTITLE9=Red, Red, Run (with Tom Russell)
TTITLE10=Brass Buttons (with Tom Russell)
TTITLE11=Freedom Highway (with Tom Russell)
EXTD=LABEL =East Side Digital\nID =ESD80902\nUPC =021561-8090-24\nC
EXTD=OPYRIGHT =1993
EXTT0=
EXTT1=
EXTT2=
EXTT3=
EXTT4=
EXTT5=
EXTT6=
EXTT7=
EXTT8=
EXTT9=
EXTT10=
EXTT11=
PLAYORDER=
